<svg xmlns="http://www.w3.org/2000/svg" width="933.333" height="933.333" preserveAspectRatio="xMidYMid meet" version="1.0" viewBox="0 0 700 700"><metadata>Created by potrace 1.11, written by Peter Selinger 2001-2013</metadata><g fill="#000" stroke="none"><path d="M3108 5792 c-8 -2 -24 -24 -35 -50 -11 -26 -141 -330 -288 -677 -147 -346 -334 -787 -416 -979 -82 -191 -149 -350 -149 -353 0 -3 -13 -34 -30 -70 -16 -35 -30 -66 -30 -69 0 -2 -9 -23 -19 -47 -11 -23 -89 -206 -174 -407 -85 -201 -214 -504 -287 -675 -164 -386 -153 -358 -155 -370 -2 -5 -14 -35 -28 -65 -14 -30 -76 -174 -137 -320 -106 -253 -142 -335 -190 -443 -12 -27 -19 -51 -16 -54 7 -7 4685 -7 4692 -1 2 3 -9 35 -26 72 -16 38 -30 74 -30 82 0 8 -4 14 -10 14 -5 0 -10 6 -10 13 0 12 -45 124 -90 222 -10 22 -37 85 -60 140 -23 55 -48 114 -55 130 -27 60 -324 762 -334 788 -6 15 -19 46 -30 70 -10 23 -69 161 -131 307 -62 146 -138 326 -170 400 -32 74 -122 286 -200 470 -78 184 -150 353 -160 375 -9 22 -34 81 -55 130 -20 50 -45 108 -55 130 -162 367 -187 458 -178 647 7 141 28 216 115 408 41 91 77 170 79 175 4 9 -1293 16 -1338 7z m792 -1222 c0 -5 11 -33 24 -62 26 -57 253 -568 508 -1143 88 -198 168 -378 178 -400 10 -22 66 -148 125 -280 58 -132 112 -253 120 -270 80 -176 282 -633 300 -677 l23 -56 -1245 0 c-940 0 -1243 3 -1240 11 27 68 250 607 257 622 5 11 68 164 140 340 149 366 144 352 158 385 7 14 77 185 157 380 80 195 150 364 155 375 5 11 41 99 81 195 60 147 164 403 226 553 14 34 33 50 33 27z" transform="translate(0.000000,700.000000) scale(0.100000,-0.100000)"/></g></svg>